PathFileType	4	(X/Y/Z)	Patient4_TMGait_0pt2_02_left_24.trc.trc
DataRate	CameraRate	NumFrames	NumMarkers	Units	OrigDataRate	OrigDataStartFrame	OrigNumFrames
45.161290322581	45.161290322581	5	33	mm	45.161290322581	89	       141
Frame#	Time	R.Midfoot.Superior			Sacral			L.Shoulder			Chest			R.Shoulder			Neck			R.ASIS			L.ASIS			R.Thigh.Superior			R.Thigh.Lateral			R.Thigh.Inferior			R.Patella			L.Thigh.Superior			L.Thigh.Lateral			L.Thigh.Inferior			L.Patella			L.Shank.Superior			L.Shank.Lateral			L.Shank.Inferior			R.Shank.Superior			R.Shank.Lateral			R.Shank.Inferior			R.Heel			R.Midfoot.Lateral			R.Toe			L.Heel			L.Midfoot.Lateral			L.Midfoot.Superior			L.Toe			L.Elbow			L.Wrist			R.Elbow			R.Wrist			
		X1	Y1	Z1	X2	Y2	Z2	X3	Y3	Z3	X4	Y4	Z4	X5	Y5	Z5	X6	Y6	Z6	X7	Y7	Z7	X8	Y8	Z8	X9	Y9	Z9	X10	Y10	Z10	X11	Y11	Z11	X12	Y12	Z12	X13	Y13	Z13	X14	Y14	Z14	X15	Y15	Z15	X16	Y16	Z16	X17	Y17	Z17	X18	Y18	Z18	X19	Y19	Z19	X20	Y20	Z20	X21	Y21	Z21	X22	Y22	Z22	X23	Y23	Z23	X24	Y24	Z24	X25	Y25	Z25	X26	Y26	Z26	X27	Y27	Z27	X28	Y28	Z28	X29	Y29	Z29	X30	Y30	Z30	X31	Y31	Z31	X32	Y32	Z32	X33	Y33	Z33	

89	55.828571428571	1274.820556460922	97.944001484460	595.019117727260	1022.273968942315	1018.463185888235	485.162078085809	1262.549738139158	1435.988043356651	350.544444245400	1317.195451288207	1360.021662649429	529.727329519783	1202.000004426703	1443.720761148102	677.469290941576	1211.855359489958	1498.784881724581	498.718593039259	1224.471607375814	942.349030599423	644.163965913938	1259.123967426401	962.050956410358	370.687827211798	1273.151358536488	744.500824436687	606.400153926345	1190.763578505648	633.901468041640	659.288703576323	1271.252184906942	584.600174153244	580.579827565732	1273.797465866387	500.283571374309	584.071648487482	1264.067047721409	734.606082345417	387.742588140054	1165.000251865743	636.210393399361	303.848082427491	1228.667527631002	543.698146501985	369.202811153131	1219.039036466347	473.330363139279	369.157561115722	1176.631772926678	411.562284451321	352.614928368143	1067.904564532207	321.429198150104	289.531982101506	1096.262354522004	195.061245253755	348.051489344035	1251.370026812802	409.844973297329	591.961343585141	1186.742434780480	303.962208776827	658.361659508588	1230.568760471136	209.956330264819	593.011084186822	1101.445263696355	43.126246059396	574.281399687798	1191.473281271373	37.227748006718	640.506074002894	1397.106008348666	49.186982506818	611.283509957059	945.623270500037	52.585892659599	373.284654381538	1021.792183153857	43.339638099713	295.767979453389	1109.040711755663	98.731219634261	324.675277034129	1233.484249842761	40.166136693947	298.638416492126	1390.580408020427	1126.021180071613	215.163448043550	1646.476860943985	1080.398562576225	246.595102416889	1037.711218352600	1128.622873004526	754.912389671212	1025.515279069595	866.340858107966	757.813440966398	
90	55.850714285714	1270.390521607661	97.838241629143	595.122311494586	1021.698380164435	1018.568583105365	492.596204986445	1259.623809149199	1436.149985826994	353.448805921226	1317.219962678125	1360.233409187540	531.724118783632	1204.382787668919	1443.728820065654	681.472234978491	1211.581584341618	1499.091901460012	502.337877794400	1226.229971051711	942.652459522313	648.416098213243	1256.804714724385	962.275697284780	374.391372213196	1273.086529193300	743.992159669569	610.056465390657	1190.229560287537	633.710597335458	663.074722392562	1269.786845683824	584.126135915549	583.614496289013	1271.808665849415	499.689308986469	586.623070106785	1266.326479735215	736.228475647676	391.477477098866	1169.225136209966	636.219458801967	307.961862325716	1236.097634769152	544.369152359329	372.113761761752	1227.694154765924	472.471750122014	371.130589893155	1182.707429702188	411.242932434339	354.753977051329	1071.195336798031	324.598178666235	291.700627829093	1096.910099247859	196.997462094675	348.327825257063	1248.858619101921	409.437980604670	594.036030645187	1183.905567741652	303.455606866197	659.906788398246	1226.924598877473	209.660032311635	593.758717247675	1096.991534541216	43.138231731325	574.317490634891	1187.006018194983	37.203030611974	640.547770543117	1392.658509122139	49.000500242479	611.360767165684	942.774867422035	58.599088792483	372.884848793212	1018.524164618742	46.744856501413	295.555641088729	1107.164992194324	99.786875464896	324.094572787574	1229.480403039871	39.452026465115	298.514354721736	1379.096136413110	1120.671615121655	220.018090598498	1632.015096250241	1059.736698378727	250.142257667793	1045.052289940214	1126.087378017981	762.291062198951	1035.466379349854	863.636896757048	766.210587276521	
91	55.872857142857	1265.922314379074	97.724168975631	595.192662513234	1020.967902172274	1018.449651898294	499.894158030207	1256.276986388371	1436.103114091001	356.147238421511	1316.943907032206	1360.303687351308	533.461646552657	1206.582532235743	1443.581679452227	685.242386092065	1211.052737842616	1499.222408636100	505.770261512989	1227.851024286154	942.799693316210	652.482302565633	1254.307975066979	962.423367342447	377.997528679077	1273.215947103348	743.474867011956	613.545480760805	1190.055310119766	633.371222323112	666.667533749562	1268.756925830644	583.618902404904	586.462181444171	1270.384120508033	498.954371116416	589.052370156555	1269.274616881961	738.224844483117	395.331288344925	1174.877644540702	636.211959083130	312.109087919412	1245.165317175700	545.407421901633	375.255126319693	1238.065117382326	471.826426615769	373.225334152133	1190.405047514784	411.050870598585	356.980282953946	1076.022149676230	328.360762623963	293.897801284809	1098.549252183593	199.567899467478	348.602318978999	1246.758361104703	408.894564218623	595.972774679477	1181.353274829643	302.897115365531	661.317681211033	1223.425619080912	209.282868027680	594.426521662682	1092.497295461699	43.153259125620	574.336661604240	1182.492974361805	37.182188468680	640.576371855854	1388.170130963812	48.799925617290	611.429544618561	940.527559050256	66.326141079287	372.491215834059	1015.598762538417	51.340784690265	295.344913960804	1105.852407708544	101.298388101931	323.482882250321	1225.319449690420	38.713285291076	298.456153334104	1366.166811977650	1114.879229222080	224.881325390783	1614.296115898602	1036.903821222939	253.676776641301	1053.337738961737	1122.952687566821	769.584139232238	1047.282728678257	860.345288414268	774.742743477440	
92	55.895000000000	1261.440587605584	97.604551969767	595.231241956670	1020.087322474019	1018.015766519104	507.038174037353	1252.533953568834	1435.760444356812	358.655339148944	1316.356842210543	1360.150422105835	534.963361283275	1208.575232608300	1443.215975114946	688.769524217658	1210.263068138577	1499.096718157797	509.014890590018	1229.344192669985	942.737978766721	656.358624751633	1251.650200425915	962.423912134118	381.514036241092	1273.665357642537	742.955488103448	616.810073950782	1190.456693278642	632.826812461474	670.016791379494	1268.383643980548	583.065005833219	589.045391164341	1269.793493836558	498.029716616831	591.276689433313	1272.824201303571	740.577219521519	399.314894915886	1181.883135653709	636.230146029195	316.292473208341	1255.706001898379	546.884898250625	378.693577614233	1249.998554670792	471.507293284703	375.532338233713	1199.651493254507	411.061431498995	359.350835810409	1082.365044372938	332.771149750914	296.179022273953	1101.190356117570	202.856766421479	348.958143521466	1245.279317140872	408.156674950859	597.696828316402	1179.276739423978	302.269795074884	662.568062180441	1220.170059310185	208.789111238521	594.976900545599	1087.987202953966	43.173555092521	574.346656881965	1177.958100751236	37.166416367279	640.597124520944	1383.667718245063	48.577760354346	611.492157930568	938.985253479433	75.901212969300	372.197912409414	1013.081972337102	57.317030843728	295.208571551273	1105.129545679247	103.372105724383	322.936330111299	1220.964940056664	37.929580349735	298.495780716060	1351.946960701588	1108.710378158100	229.810517627984	1593.077341618243	1012.163276154308	257.195381698871	1062.615102576942	1119.214608624166	776.795502421456	1061.274994772283	856.530695987773	783.425478517369	
93	55.917142857143	1256.968863686547	97.481646401045	595.238791023655	1019.059434007981	1017.172718488947	514.015898355625	1248.421934659996	1435.027469574031	360.986311888495	1315.458525735600	1359.682289003558	536.246771848546	1210.356637750717	1442.560806062237	692.047522558844	1209.220726287323	1498.629862396447	512.069210571708	1230.720155056737	942.403248152626	660.034920769703	1248.841973487838	962.205171003153	384.936612397110	1274.540195666234	742.420285979270	619.787041987792	1191.620434972130	632.012802934524	673.065153476778	1268.859217331220	582.441382747463	591.283829984887	1270.266902635979	496.865911306674	593.205603648101	1276.852323163422	743.249682133381	403.435865949598	1190.114228727364	636.313167104857	320.514851402710	1267.492751414883	548.854149841708	382.491838484254	1263.288565345873	471.611782660958	378.145694180909	1210.312378711043	411.336682253600	361.928813978753	1090.141220206622	337.843622598037	298.610637797835	1104.811137797832	206.906471831813	349.498723323828	1244.601000934263	407.164902552330	599.130386518284	1177.837948423743	301.553568157936	663.623504416174	1217.242326986058	208.143986288624	595.371773321793	1083.484254702849	43.202407018400	574.352740421662	1173.423051894229	37.157608391719	640.613846411999	1379.175089020387	48.323689175865	611.550339336345	938.236600165783	87.336310738152	372.115991800488	1011.045894946357	64.788453109652	295.232980845958	1105.008057057256	106.099531650423	322.569770420827	1216.425581595519	37.081914991015	298.660215619651	1336.604134631187	1102.224134428161	234.858708416489	1568.189707819326	985.921772724187	260.685175040783	1072.900720170111	1114.902208996640	783.924508565520	1077.703174686646	852.323967778354	792.219450915895	
